<svg xmlns="http://www.w3.org/2000/svg" xmlns:xlink="http://www.w3.org/1999/xlink" viewBox="0 0 841.89 595.28"><defs><style>.cls-1{fill:#c4dbd4;}.cls-2{fill:#b0d8ca;}.cls-3{fill:#ecf6f1;opacity:0.33;}.cls-4{fill:#a4cdc0;}.cls-5{fill:#f3e4de;}.cls-6{fill:#87c1ab;}.cls-7{fill:#33425e;}.cls-8{fill:#f4d7ce;}.cls-9{fill:#2a394f;}.cls-10{fill:#19263a;}.cls-11{fill:url(#linear-gradient);}.cls-12{fill:url(#linear-gradient-2);}.cls-13,.cls-16,.cls-20,.cls-26{fill:none;stroke-miterlimit:10;}.cls-13{stroke:#fff;stroke-width:7px;}.cls-14{fill:#95d0bc;}.cls-15{fill:#fff;}.cls-16,.cls-26{stroke:#4c876f;stroke-linecap:round;}.cls-16{stroke-width:2px;}.cls-17{fill:#e8f3ed;}.cls-18{fill:#cbe8db;}.cls-19{fill:url(#radial-gradient);}.cls-20{stroke:#d0eadc;}.cls-21{fill:#d0eadc;}.cls-22{fill:url(#linear-gradient-3);}.cls-23{fill:url(#linear-gradient-4);}.cls-24{fill:url(#linear-gradient-5);}.cls-25{opacity:0.51;}.cls-26{stroke-width:0.75px;opacity:0.47;}</style><linearGradient id="linear-gradient" x1="166.92" y1="210.32" x2="613.93" y2="210.32" gradientUnits="userSpaceOnUse"><stop offset="0" stop-color="#c4dbd4" stop-opacity="0.5"/>
<stop offset="0.06" stop-color="#cbdfd9" stop-opacity="0.44"/><stop offset="0.24" stop-color="#deebe7" stop-opacity="0.28"/><stop offset="0.42" stop-color="#ecf4f1" stop-opacity="0.16"/><stop offset="0.6" stop-color="#f7faf9" stop-opacity="0.07"/><stop offset="0.79" stop-color="#fdfefe" stop-opacity="0.02"/><stop offset="0.99" stop-color="#fff" stop-opacity="0"/></linearGradient><linearGradient id="linear-gradient-2" x1="206.98" y1="281.62" x2="207.98" y2="281.62" gradientUnits="userSpaceOnUse"><stop offset="0" stop-color="#c4dbd4" stop-opacity="0.5"/><stop offset="0.05" stop-color="#d1e3dd" stop-opacity="0.39"/><stop offset="0.11" stop-color="#dfebe8" stop-opacity="0.27"/><stop offset="0.19" stop-color="#ebf3f0" stop-opacity="0.17"/><stop offset="0.28" stop-color="#f4f8f7" stop-opacity="0.09"/>
<stop offset="0.39" stop-color="#fafcfc" stop-opacity="0.04"/><stop offset="0.55" stop-color="#fefefe" stop-opacity="0.01"/><stop offset="0.99" stop-color="#fff" stop-opacity="0"/></linearGradient><radialGradient id="radial-gradient" cx="509" cy="423.85" r="74.7" gradientUnits="userSpaceOnUse"><stop offset="0" stop-color="#fff"/><stop offset="1" stop-color="#ededee"/></radialGradient><linearGradient id="linear-gradient-3" x1="224.88" y1="237.47" x2="328.71" y2="237.47" gradientUnits="userSpaceOnUse"><stop offset="0.12" stop-color="#c4dbd4" stop-opacity="0.5"/><stop offset="0.27" stop-color="#cbdfd9" stop-opacity="0.44"/><stop offset="0.55" stop-color="#dceae6" stop-opacity="0.29"/><stop offset="0.91" stop-color="#f9fbfa" stop-opacity="0.05"/><stop offset="0.99" stop-color="#fff" stop-opacity="0"/></linearGradient><linearGradient id="linear-gradient-4" x1="208.3" y1="325.97" x2="281.35" y2="325.97" xlink:href="#linear-gradient-3"/><linearGradient id="linear-gradient-5" x1="170.71" y1="286.21" x2="225.35" y2="286.21" xlink:href="#linear-gradient-3"/></defs><g id="Layer_3" data-name="Layer 3"><path class="cls-1" d="M441.53,449.05c-2.16,5.11-4.59,10.75-7.63,16.5-6.62,12.57-16.14,25.64-32.07,34.64-22.68,12.81-45.72,10.2-57.34,8.87-70.15-8-114.93-77.25-123.47-91a1.32,1.32,0,0,1-.08-.14v0a704,704,0,0,1-63.56,57.32c-5.13,4.09-6.55,5.25-12,9.31-1.45,1.08-55.21,23.2-58.93,18.1l44-47.49L207,372.56l27.1,2.1A933.41,933.41,0,0,0,329.6,424.3q11.64,5.24,23,9.93c-14.57-19-16-42-16.22-48.44-1-35.09,20.49-74.61,56.08-85.2,7.22-2.14,24.87-7.38,40.39,1.19C469.25,321.88,462.13,400.47,441.53,449.05Z"/><path class="cls-2" d="M433.9,465.55c-6.62,12.57-16.14,25.64-32.07,34.64-22.68,12.81-45.72,10.2-57.34,8.87-70.15-8-114.93-77.25-123.47-91a1.32,1.32,0,0,1-.08-.14c1.59.9,103.08,58.69,146,68.76,43.27,10.13,64.23-34.48,64.23-34.48Z"/><path class="cls-2" d="M220.94,417.9v0a704,704,0,0,1-75.51,66.63h0a.22.22,0,0,1-.1.08l-4.2,2.69-8-2.65,6.29-5.78L220.94,404s10.14-3.59,11.67,0S220.94,417.9,220.94,417.9Z"/><line class="cls-1" x1="122.79" y1="463.42" x2="145.42" y2="484.51"/><path class="cls-3" d="M376.14,510.92H679.89s59.42-.07,77.5,0S780,519.17,771.26,521s-69,.07-65.53,4.58-9,6.33-17.85,5.42H52.08s-2.09-1.85-4.58-3.9,9-1.52,23.07-1.52H208.31s18.47,1,17.31-4.51-6.38-10.84,9.29-10.84S376.14,510.92,376.14,510.92Z"/><path class="cls-4" d="M446.81,432.28c-2.32,9.25-11,43.6-23.23,43.79-6.54.11-5.91-9.6-18.31-19.61-17.4-14-36.68-9.27-51.47-22.56a38.93,38.93,0,0,1-5.72-6.42c-.25-.35-.44-.63-.59-.83-15.81-22.67-11.17-50.43-9.94-57.81,1.72-10.45,6.18-37.45,30.66-55.15,17.16-12.4,44.34-20.36,64.41-11.71a37.13,37.13,0,0,1,5,2.57C473.4,326.62,455.18,399,446.81,432.28Z"/><path class="cls-5" d="M145.4,484.51a.22.22,0,0,1-.1.08l-4.2,2.69c-10.68,6.92-37.9,24.74-43.43,30.59-6.91,7.31-9.72,7.7-9.72,7.7H48.78l.61-4.66c.6-4.67,10.36-5.71,16.52-6s20.58-12.29,20.58-12.29l36.3-39.19,16.15,15.05.41.38Z"/><path class="cls-6" d="M446.81,432.28c-2.32,9.25-11,43.6-23.23,43.79-6.54.11-5.91-9.6-18.31-19.61-17.4-14-36.68-9.27-51.47-22.56,10.4-36.38,73.54-84.51,64.13-96.8-1.82-2.39-5.47-2.23-6.94-6-3-7.64,7.45-19.4,15.78-25.41a60.87,60.87,0,0,1,5.85-3.69,37.13,37.13,0,0,1,5,2.57C473.4,326.62,455.18,399,446.81,432.28Z"/><path class="cls-7" d="M186,370.41c1.94.23,92.52,12.3,92.52,12.3l1.22-5.2c-.46-.05-2.05-.23-4-.48,0,0-88.61-11.39-89.63-10.5l-.08.08h0C185.13,367.51,185.6,369.3,186,370.41Z"/><path class="cls-5" d="M435.19,308.91c-.92,1.87-4.38,3.25-15,1.69a184,184,0,0,1-19.13-4.14l-13.47-15.65c-2.85,3-7.46,7.6-13,7.25-6.28-.41-12.26-7.17-14.16-16.63l-8.42-3.06a26.2,26.2,0,0,0,2.18-12.13c-.26-3.55-1.2-5.25-2.45-9.14-2.47-7.63-5.08-15.7-2.37-21.9,1.94-4.43,6.35-8.43,11.4-9,.8-.09,4.72-.54,7.54,1.85,2.61,2.23,2.21,5.16,3.34,9C374.32,246,383,252.68,386,251.32c2.1-.95.47-5.32,3.78-7.93,1.9-1.5,5.26-2.28,7.25-.91,3.54,2.45-1.17,9.19,2.7,17.07.14.29.3.58.46.87a24.71,24.71,0,0,0,7.95,7.95,28.34,28.34,0,0,0,7,3.4c.6,1.2,1.59,3.14,2.86,5.52C429.61,299.09,437,305.26,435.19,308.91Z"/><path class="cls-8" d="M435.19,308.91c-.92,1.87-4.38,3.25-15,1.69l-27.43-51.18,7.44,1a24.71,24.71,0,0,0,7.95,7.95,28.34,28.34,0,0,0,7,3.4c.6,1.2,1.59,3.14,2.86,5.52C429.61,299.09,437,305.26,435.19,308.91Z"/><path class="cls-9" d="M360.61,230.55c-2.94.3-7.11,2.79-10,.59a5,5,0,0,1-1.93-3.63c-.08-4.85,9.83-5.54,15.62-13.15,5.3-7,2.6-10.42,6.31-16.39,8.33-13.41,27.89-5.38,40-17.8,8.51-8.76,2.49-17.66,8.81-30,9.9-19.42,29.44-20.12,59.07-33.68,46.23-21.17,42.85-39.7,89.63-57.52,25.57-9.73,49.9-13.08,52.33-7.77,1.8,3.92-8.8,11.51-6.73,15,2.19,3.74,14.28,3.62,21.76-2.59,6.07-5,4.5-10.29,8.81-16.06,10.25-13.75,41.58-14.11,47.15-3.63,4.28,8.05-7,21.85-12.44,28.5-20.5,25.08-49.58,33.49-48.18,37.3,1,2.66,15.22-1.4,16.58,2.07.5,1.3-.79,3.6-11.94,12.07-16.12,12.25-22,13.93-26.92,21.61-4.24,6.54-4.63,12.45-5.35,16.08-5.08,25.49-37.45,41.25-59.07,47.11-19.69,5.35-24-.45-37.14,7.28-16.47,9.69-12.53,20.46-29,29-15.88,8.24-29.69,3.49-36.27,14.51-2.55,4.27-2.55,8.46-7.25,11.92-1,.75-4.83,3.35-14.75,3.26-4.66,0-13.93-.12-23-4.93C375.21,258.36,371.65,229.44,360.61,230.55Z"/><path class="cls-10" d="M380,227.74a148.31,148.31,0,0,0,31.7-11.88,124.21,124.21,0,0,0,27.61-19.19,88.55,88.55,0,0,0,11-12.58c3.3-4.54,6.48-9.32,10.13-13.81a107.5,107.5,0,0,1,12-12.55c2.11-2,4.4-3.75,6.61-5.61s4.6-3.53,7.06-5.09a103.58,103.58,0,0,1,15.27-8.4c5.27-2.4,10.6-4.45,15.81-6.61s10.41-4.27,15.46-6.69c2.56-1.13,5-2.45,7.56-3.64s5-2.56,7.45-3.9,4.94-2.67,7.38-4.07,4.84-2.86,7.25-4.3c4.83-2.89,9.53-6,14.22-9.13C585.75,94,594.79,87.14,603.65,80l.41.44a215.49,215.49,0,0,1-25.14,23.25c-4.47,3.58-9.12,6.93-13.85,10.18s-9.63,6.22-14.57,9.16c-2.49,1.43-5,2.79-7.56,4.17l-3.86,1.93c-1.28.65-2.58,1.28-3.89,1.87-5.22,2.44-10.6,4.51-15.93,6.56s-10.71,3.81-15.85,5.95a98,98,0,0,0-14.78,7.56c-2.38,1.42-4.61,3.09-6.88,4.68-2.18,1.74-4.44,3.39-6.52,5.25a103.63,103.63,0,0,0-11.84,11.77c-3.63,4.23-6.88,8.84-10.37,13.39a91.19,91.19,0,0,1-11.74,12.72,125.94,125.94,0,0,1-28.81,18.63,143.7,143.7,0,0,1-32.38,10.82Z"/><path class="cls-5" d="M424.51,353.63c-1.07,2.82-4.29,11.3-9,21.88-10.68,24.07-28.93,58.91-46.44,62.12a46.33,46.33,0,0,1-5.94.64c-16,0-28.39-8.41-39.32-17.06a510.22,510.22,0,0,1-47-42.24l-7.27,1.66L245.29,378a18.33,18.33,0,0,1,3.29-9.63c5-7,13.39-7.57,14.61-7.63,8-.39,14.2,4.67,16.1,6.13,8.24,6.38,27.73,16.77,76.84,34.64l27.74-65.79c.5-1.15,1-2.32,1.48-3.48C399.55,336.27,410.3,349.58,424.51,353.63Z"/><polygon class="cls-11" points="166.92 273.65 513.12 53.52 613.93 212.88 191.92 367.13 166.92 273.65"/><path class="cls-12" d="M209,281.88v-.77a.5.5,0,0,0-.07-.38.56.56,0,0,0-.27-.3,1,1,0,0,0-.44-.15,1.41,1.41,0,0,0-.54,0l-.39.07a2.47,2.47,0,0,0-.7.32l-.25.23a1,1,0,0,0-.27.5v.78a.51.51,0,0,0,.07.38.54.54,0,0,0,.27.29,1,1,0,0,0,.44.16,1.24,1.24,0,0,0,.54,0l.39-.07a2,2,0,0,0,.7-.32l.25-.22a1,1,0,0,0,.27-.51Z"/><line class="cls-13" x1="172.05" y1="296.92" x2="320.8" y2="203.36"/><path class="cls-13" d="M188.44,353.83c3.56-1.06,124.49-50.47,124.49-50.47"/><path class="cls-10" d="M413.62,264.23c4.05-2.81,7.95-5.64,11.62-8.68a101.07,101.07,0,0,0,10.25-9.63c1.54-1.74,3-3.49,4.51-5.37a74.4,74.4,0,0,1,5-5.81,24.69,24.69,0,0,1,6.87-5c.64-.35,1.3-.56,2-.84a15.42,15.42,0,0,1,2-.68,25.73,25.73,0,0,1,4.11-.91,26.5,26.5,0,0,1,8.22.22c2.58.44,4.91,1.08,7,1.32a8.93,8.93,0,0,0,5.86-1.09l.7-.39.64-.48a9.3,9.3,0,0,0,1.21-1.05,10.6,10.6,0,0,0,1.85-2.64,28.46,28.46,0,0,0,2.07-6.69,51.92,51.92,0,0,1,2.07-7.25,25.27,25.27,0,0,1,1.61-3.51L492,204l1.07-1.62a37,37,0,0,1,2.36-3.12c.4-.52.88-.95,1.32-1.44s.89-1,1.38-1.4c1-.85,1.92-1.78,3-2.54.52-.4,1-.81,1.56-1.19l1.62-1.08c1.08-.76,2.22-1.34,3.33-2s2.29-1.2,3.46-1.72a105.4,105.4,0,0,1,14.15-5.06,164.88,164.88,0,0,0,26-10.95,275.1,275.1,0,0,0,24.7-14.33c8.13-5.16,16-10.84,24.1-16.4l.62.65c-1.52,1.95-3.1,3.85-4.69,5.74s-3.29,3.67-5,5.46-3.48,3.52-5.26,5.24-3.62,3.38-5.5,5c-3.78,3.21-7.66,6.34-11.76,9.18a126.47,126.47,0,0,1-12.74,8A111.21,111.21,0,0,1,527.48,191c-4.79,1.11-9.32,2.2-13.75,3.59a49.94,49.94,0,0,0-12.48,5.65,25.64,25.64,0,0,0-8.95,10.16,34.2,34.2,0,0,0-2.22,6.7A45.41,45.41,0,0,1,488,224.4a15.48,15.48,0,0,1-5,6.4c-.27.21-.54.44-.83.63l-.92.54a11.36,11.36,0,0,1-2,.93,18.73,18.73,0,0,1-2.1.61c-.69.1-1.42.26-2.1.29-2.77.22-5.27,0-7.54.06a26.76,26.76,0,0,0-6.34.81,29.81,29.81,0,0,0-5.76,2.25,21.12,21.12,0,0,0-4.9,3.53c-1.53,1.48-3.1,3.25-4.77,5.09s-3.48,3.67-5.4,5.37a66.17,66.17,0,0,1-12.5,8.66A62,62,0,0,1,414,265.05Z"/><path class="cls-14" d="M546.28,201.29c14.43-1.19,34.9-5.28,50.58-20.23,24.93-23.79,11.64-50.16,33.38-81.93,27.83-40.68,83-46.23,96.09-47.54,15.09-1.52,50.68-5.1,78.9,17.19,3.32,2.62,25.41,20.08,21.24,33.38-4.77,15.21-41.47,17.34-73.84,19.22-45.15,2.62-55.38-4.33-67.77,6.07-16.51,13.84-6.69,33.15-27.31,58.66-10.35,12.82-21.75,19-33.38,25.29-31.36,17-76,26.34-84,13.15C538.09,221,537.77,214.49,546.28,201.29Z"/><path class="cls-15" d="M578.85,213.41a104.66,104.66,0,0,0,51.78-32c7.22-8.27,12.63-17.72,17.77-27.37,5.29-10,10.5-20.11,17.92-28.69a73.3,73.3,0,0,1,30-20.79c.32-.12,1.14-.44.85-.88s-1.59,0-1.88.13a77.74,77.74,0,0,0-27.1,16.93c-8,7.74-13.79,17.26-19.05,27s-10.2,19.83-17,28.7a100.65,100.65,0,0,1-22.15,21.31,98.69,98.69,0,0,1-31.47,14.74c-.29.07-1.44.4-1.31.88s1.33.17,1.58.11Z"/><path class="cls-15" d="M711.1,77.79c16.75-4.64,34.18,1.27,51,2.19a70.68,70.68,0,0,0,14.32-.58c.31-.05,1.7-.35,1.7-.79s-.85-.32-1.16-.27c-17.38,2.59-34.54-3.73-51.91-3.4a56.91,56.91,0,0,0-14.22,2c-.26.07-1.44.39-1.33.83s1.36.11,1.57.05Z"/><path class="cls-16" d="M508.47,437.66c-6.94-94.19-.25-163.83,6.68-179.46,7.2-16.22,17.4-34.56,17.4-34.56s1.85-3.34,3.78-6.69c15.79-27.33,30.66-43.42,40.13-61.3,16.79-31.69,2.41-42.14,17.84-61.31,10.44-13,23.13-15.77,56.85-24.52,89.9-23.35,114.4-33.24,119.27-24.53,2.77,5-4.35,9.62-14.49,30.1-20,40.5-11.67,61.57-25.64,69.11-20,10.82-44.48-28.65-71.34-19-18.06,6.52-14.45,27.05-43.47,58-13.87,14.78-26.89,23.08-37.9,30.1-48.93,31.2-68.43,17.5-85.83,37.9-16.76,19.64-6,40.91-5.58,122.62.17,30.41-1.17,55-2.23,70.22"/><path class="cls-10" d="M531.15,100.62a119.46,119.46,0,0,1,12.42-9.47c2.11-1.49,4.32-2.82,6.49-4.24s4.42-2.66,6.64-4,4.49-2.53,6.77-3.75,4.56-2.42,6.92-3.5a119.7,119.7,0,0,1,14.4-6l.15.26L558.19,85.52,531.3,100.88Z"/><path class="cls-10" d="M427.68,164.33a28.18,28.18,0,0,1-.41-8,22.47,22.47,0,0,1,2.23-8,18.44,18.44,0,0,1,5.62-6.64,21,21,0,0,1,3.79-2.13c1.28-.55,2.55-1,3.78-1.47,2.51-.79,4.9-1.55,7.28-2.35s4.75-1.65,7.14-2.48c4.75-1.75,9.44-3.69,14.32-5.61l.17.26a104.07,104.07,0,0,1-13.51,7.49A134,134,0,0,1,443.66,141a29,29,0,0,0-7,3.1,17.28,17.28,0,0,0-5.16,5.5c-2.61,4.41-3.46,9.65-3.56,14.74Z"/><path class="cls-10" d="M600.28,69.7c2.83-2.16,5.77-4.14,8.65-6.21s5.87-4,8.83-5.91,6-3.83,8.94-5.74l9-5.57,9.14-5.41c3.07-1.75,6.12-3.56,9.23-5.25s6.21-3.41,9.34-5.07,6.29-3.29,9.51-4.79l.11.17L636.78,48l-36.4,21.89Z"/><path class="cls-10" d="M372.77,221.76c2.83-2.17,5.78-4.14,8.66-6.21s5.86-4,8.83-5.92,6-3.82,8.94-5.73l9-5.57,9.13-5.42c3.08-1.75,6.12-3.55,9.23-5.25s6.21-3.41,9.35-5.07,6.28-3.28,9.51-4.78l.1.17L409.27,200l-36.39,21.89Z"/><path class="cls-10" d="M530.13,156l27.13-17.35,27.18-17.25c9-5.76,18-11.62,27.23-17.18S630.07,93.21,639.49,88l.1.17c-8.81,6.16-17.84,12-26.86,17.77s-18.28,11.26-27.45,16.84l-27.49,16.74-27.56,16.67Z"/><path class="cls-8" d="M145.42,484.51s-40.83,26.05-47.75,33.36-9.72,7.7-9.72,7.7H82.84c3.06-9.42,14.27-15.36,14.27-15.36l41.83-31.74Z"/><path class="cls-8" d="M415.54,375.51c-10.68,24.07-28.93,58.91-46.44,62.12a46.33,46.33,0,0,1-5.94.64c-16,0-28.39-8.41-39.32-17.06a510.22,510.22,0,0,1-47-42.24s59.81,27.73,77.3,36.48,22.31-7.72,22.31-7.72l21.05-43.2Z"/><path class="cls-4" d="M426.71,347.69s-.92,8.36-15.12,36.46c-6.84,13.52-15.89,8.43-23.4-.56v0c-8.1-9.68-14.43-23.86-14.33-24.11.21-.47,13.13-31.87,13.13-31.87a105.16,105.16,0,0,1,24,3.5c1.31.35,2.65.73,4,1.14C430.17,336.84,426.71,347.69,426.71,347.69Z"/><path class="cls-6" d="M426.71,347.69s-.92,8.36-15.12,36.46c-6.84,13.52-15.89,8.43-23.4-.56v0s21.73-34.64,22.72-41.2c.56-3.72-.22-7.94.09-11.28,1.31.35,2.65.73,4,1.14C430.17,336.84,426.71,347.69,426.71,347.69Z"/><path class="cls-17" d="M463.69,510.92h-19c-2.71,0-17.18,3.57-3.17,4.93s127.33,0,127.33,0,7.43-4.93-4.34-4.93Z"/><path class="cls-17" d="M326.44,510H311.7c-2.1,0-13.31,2.76-2.45,3.81s98.64,0,98.64,0,5.75-3.81-3.37-3.81Z"/><path class="cls-17" d="M57,525.57h-6.4c-.91,0-5.78.87-1.07,1.2s42.82,0,42.82,0,2.49-1.2-1.46-1.2Z"/><path class="cls-18" d="M501.78,377.5s-14.55-28.1-8.27-53.3a42.53,42.53,0,0,1,12.09-20.93s16.64-13.82,23.75-28.74,44.21-29.15,47.77-29.15,30.49-4.91,28,23.21-50,20.49-53.18,23.54-3.23,10.09,2.36,11.14,12.51,6.14,7.53,9.7-13.12,2-19.72,1.52-17.79,3.24-15.76,7.72-.5,10.79-10.67,9.92S497,314.74,497,314.74"/><path class="cls-19" d="M486.38,343.37C467.91,311.28,434.7,448.51,456.13,498a59.7,59.7,0,0,0,7.56,13h89a77.87,77.87,0,0,0,6.38-12c23.58-55.11-.3-157.91-22.69-162-7.66-1.4-10.85,9.58-26.17,11.11C497.19,349.3,504.84,375.47,486.38,343.37Z"/><path class="cls-15" d="M513.05,313.59c4-2.86,6.89-6.87,9.57-11a90.75,90.75,0,0,1,8.8-11.74,74.47,74.47,0,0,1,23.13-17.07A72.78,72.78,0,0,1,570,268.56c.49-.11,1.4-.59,1.23-1.22s-1.2-.55-1.67-.45a78,78,0,0,0-47.44,32.19c-3.23,4.78-6.11,10.06-10.92,13.46-.47.34-.77.88-.21,1.28a2.1,2.1,0,0,0,2.06-.23Z"/><rect class="cls-20" x="237.05" y="214.49" width="15.74" height="14.68" transform="translate(-48.37 69.6) rotate(-14.74)"/><rect class="cls-20" x="244.84" y="260.17" width="15.74" height="14.68" transform="translate(-59.73 73.08) rotate(-14.74)"/><path class="cls-20" d="M287.93,269.06c0-.82-14.9-56.78-17.13-65.16"/><polygon class="cls-21" points="275.6 206.06 275.07 206.91 270.9 204.28 268.58 208.63 267.7 208.16 270.52 202.86 275.6 206.06"/><path class="cls-20" d="M241.5,245.83c.95,0,65.95-17.31,75-19.72"/><polygon class="cls-21" points="314.35 230.91 313.51 230.38 316.14 226.21 311.79 223.89 312.26 223 317.56 225.83 314.35 230.91"/><rect class="cls-20" x="250.78" y="220.89" width="15.74" height="14.68" transform="translate(-49.55 73.3) rotate(-14.74)"/><rect class="cls-20" x="261.93" y="247.22" width="15.74" height="14.68" transform="translate(-55.88 77) rotate(-14.74)"/><rect class="cls-20" x="304.49" y="243.62" width="15.74" height="14.68" transform="translate(-53.56 87.71) rotate(-14.74)"/><rect class="cls-20" x="283.54" y="210.95" width="15.74" height="14.68" transform="translate(-45.94 81.3) rotate(-14.74)"/><rect class="cls-20" x="288.66" y="199.5" width="15.74" height="14.68" transform="translate(-42.86 82.23) rotate(-14.74)"/><circle class="cls-22" cx="276.79" cy="237.47" r="51.92"/><circle class="cls-21" cx="267.33" cy="324.81" r="2.9" transform="translate(-115.77 498.57) rotate(-74.94)"/><path class="cls-21" d="M261,330.86c-.46-2.07,2.11-4.78,5-4.93a4.83,4.83,0,0,1,2.46.52c2.66,1.43,3.51,5.65,1.81,7.22C268.09,335.66,261.6,333.73,261,330.86Z"/><circle class="cls-20" cx="267.04" cy="325.99" r="8.51"/><circle class="cls-21" cx="250.7" cy="306.97" r="2.9" transform="translate(-119.75 166.1) rotate(-29.94)"/><path class="cls-21" d="M244.34,313c-.46-2.08,2.11-4.78,5-4.93a4.61,4.61,0,0,1,2.46.52c2.66,1.43,3.51,5.65,1.81,7.22C251.46,317.82,245,315.9,244.34,313Z"/><circle class="cls-20" cx="250.41" cy="308.16" r="8.51"/><circle class="cls-21" cx="224.89" cy="334.99" r="2.9" transform="translate(-157.02 465.12) rotate(-74.94)"/><path class="cls-21" d="M218.53,341c-.46-2.07,2.11-4.78,5-4.92a4.69,4.69,0,0,1,2.46.51c2.66,1.43,3.51,5.65,1.81,7.22C225.65,345.84,219.16,343.91,218.53,341Z"/><path class="cls-20" d="M219.51,343a8.53,8.53,0,0,1-.31-13.41"/><path class="cls-20" d="M219.2,329.59a8.51,8.51,0,1,1,.31,13.41"/><line class="cls-17" x1="232.57" y1="339.17" x2="241.17" y2="341.28"/><line class="cls-20" x1="232.57" y1="339.17" x2="240.7" y2="341.17"/><polygon class="cls-21" points="238.81 342.6 238.59 342.2 240.53 341.13 239.31 339.27 239.69 339.02 241.17 341.28 238.81 342.6"/><path class="cls-20" d="M254.26,345.1c.2,0,6.87,1.69,6.87,1.69l.3-1.2,2-8.13"/><polygon class="cls-21" points="264.86 339.34 264.46 339.56 263.39 337.63 261.53 338.84 261.28 338.47 263.54 336.98 264.86 339.34"/><path class="cls-20" d="M269.13,317.74c0-.2,1.69-6.87,1.69-6.87l-1.19-.29-8.14-2"/><polygon class="cls-21" points="263.38 307.15 263.6 307.54 261.66 308.62 262.88 310.47 262.5 310.72 261.02 308.46 263.38 307.15"/><path class="cls-20" d="M242.71,303.85c-.31,0-10.49-2.58-10.49-2.58l-.35,1.44-2.43,9.9"/><polygon class="cls-21" points="228 310.72 228.4 310.5 229.48 312.44 231.33 311.22 231.58 311.6 229.32 313.08 228 310.72"/><path class="cls-20" d="M249,314.17c-.13.32-3,12.1-3,12.1l-1.19-.3-8.14-2"/><polygon class="cls-21" points="238.58 322.54 238.8 322.94 236.86 324.02 238.08 325.87 237.7 326.12 236.22 323.86 238.58 322.54"/><rect class="cls-21" x="244.32" y="340.33" width="10.01" height="7.81" transform="translate(89.41 -49.57) rotate(13.81)"/><rect class="cls-21" x="222.23" y="316.3" width="10.01" height="7.81" transform="translate(83.03 -45) rotate(13.81)"/><circle class="cls-23" cx="244.83" cy="325.97" r="36.52"/><circle class="cls-21" cx="197.63" cy="286.21" r="2.27" transform="translate(-92.81 477.58) rotate(-88.76)"/><path class="cls-21" d="M193.92,292c-.73-1.49.71-4,2.87-4.67a3.62,3.62,0,0,1,2-.07c2.29.59,3.72,3.63,2.72,5.15C200.23,294.31,194.94,294.06,193.92,292Z"/><circle class="cls-20" cx="197.63" cy="287.17" r="6.66"/><circle class="cls-21" cx="210.36" cy="278.39" r="1.68"/><path class="cls-21" d="M207.61,282.69c-.55-1.11.53-3,2.13-3.47a2.66,2.66,0,0,1,1.46-.05c1.7.44,2.76,2.7,2,3.82C212.29,284.4,208.36,284.22,207.61,282.69Z"/><circle class="cls-20" cx="210.36" cy="279.1" r="4.94"/><circle class="cls-21" cx="183.72" cy="297.26" r="1.68"/><path class="cls-21" d="M181,301.55c-.55-1.1.53-3,2.13-3.46a2.66,2.66,0,0,1,1.46,0c1.7.43,2.76,2.69,2,3.82C185.65,303.27,181.72,303.08,181,301.55Z"/><path class="cls-20" d="M188.66,298a4.94,4.94,0,1,1-4.94-4.94A4.94,4.94,0,0,1,188.66,298Z"/><circle class="cls-21" cx="190.04" cy="279.31" r="2.43" transform="translate(-3.76 2.59) rotate(-0.77)"/><path class="cls-21" d="M215.88,300.39a2.43,2.43,0,1,1-2.42-2.43A2.42,2.42,0,0,1,215.88,300.39Z"/><path class="cls-20" d="M207.2,275a15.17,15.17,0,0,0-23.48,18"/><path class="cls-20" d="M213.22,283c.13.61,1.92,9.22-4,15.15-5.15,5.18-13.92,6.06-21,1.65"/><path class="cls-20" d="M189.14,280.69a11.33,11.33,0,0,0,.06,13.42c3.75,4.73,10.07,3.84,10.45,3.78s6.37-1.12,8.63-6.55a11.15,11.15,0,0,0,.22-7.66"/><path class="cls-20" d="M191.85,278a11.8,11.8,0,0,1,6.31-1.69,11.93,11.93,0,0,1,7.26,2.77"/><circle class="cls-24" cx="198.03" cy="286.21" r="27.32"/><path class="cls-7" d="M192,367.16l-25-93.47-5.84,1.2L186,366.66"/><g class="cls-25"><path class="cls-26" d="M219.2,264.64c4.63-.29,181.25-100.31,181.25-100.31"/><path class="cls-26" d="M281.35,303.36c3.36.51,190.16-90.45,190.16-90.45"/><path class="cls-26" d="M407.61,212.91c2.86-1.58,130.56-64.95,152.52-85.07s5.36-39.73,5.36-39.73"/><line class="cls-26" x1="341.49" y1="177.89" x2="400.45" y2="146.09"/><path class="cls-26" d="M502.91,141.17l35.31-21.35c9.28-5.83,15.21-13.21,14-18.78a14.37,14.37,0,0,0-1.28-3.21c-.65-1.24-3.91-7.45-9.79-8.5S527.79,92.61,527,98.64c-.62,4.68,2.72,10.6,6.26,10.43,2.6-.13,5.26-3.54,6.1-8.35"/></g><path class="cls-8" d="M354.56,259.44a44.33,44.33,0,0,1,3.71-4.27,39.21,39.21,0,0,1,4.26-3.76,17.46,17.46,0,0,1,2.45-1.54,6.48,6.48,0,0,1,1.42-.52,2.18,2.18,0,0,1,1.67.19,25.17,25.17,0,0,0,4.76,3,15.82,15.82,0,0,1-5.17-2.29c-.56-.27-1.49.1-2.25.51a19.57,19.57,0,0,0-2.29,1.5c-1.48,1.1-2.9,2.31-4.31,3.53Z"/></g></svg>